<svg xmlns="http://www.w3.org/2000/svg" viewBox="0 0 383 126"><defs><style>.cls-1{fill:#eace57;}</style></defs><title>Asset 13</title><g id="Layer_2" data-name="Layer 2"><g id="Layer_2-2" data-name="Layer 2"><rect width="383" height="53"/><rect x="86" y="73" width="211" height="53"/><path d="M121.88,110.31V86.95a1.23,1.23,0,0,1,.61-1.08,2.59,2.59,0,0,1,1.44-.4h12.82a1.22,1.22,0,0,1,1.1.61,2.62,2.62,0,0,1,.38,1.4,2.66,2.66,0,0,1-.4,1.48,1.23,1.23,0,0,1-1.08.61H126.56v7.2H132a1.26,1.26,0,0,1,1.08.56,2.22,2.22,0,0,1,.4,1.31,2.16,2.16,0,0,1-.38,1.24,1.24,1.24,0,0,1-1.1.56h-5.47v7.24h10.19a1.23,1.23,0,0,1,1.08.61,2.66,2.66,0,0,1,.4,1.48,2.61,2.61,0,0,1-.38,1.4,1.21,1.21,0,0,1-1.1.61H123.93a2.59,2.59,0,0,1-1.44-.4A1.22,1.22,0,0,1,121.88,110.31Z"/><path d="M141,110.35V86.91a1.25,1.25,0,0,1,.58-1,2.39,2.39,0,0,1,1.48-.43h6.37a9.13,9.13,0,0,1,6.16,2q2.3,2,2.3,6.26v9.83q0,4.28-2.3,6.26a9.12,9.12,0,0,1-6.16,2H143a2.39,2.39,0,0,1-1.48-.43A1.25,1.25,0,0,1,141,110.35Zm4.68-2.66h3.74q3.78,0,3.78-4.14V93.71q0-4.14-3.78-4.14h-3.74Z"/><path d="M169,110.35V86.95a1.23,1.23,0,0,1,.61-1.08,2.59,2.59,0,0,1,1.44-.4H178q7.24,0,7.24,6.34,0,4.39-3.06,5.72a6,6,0,0,1,2.77,2,6.58,6.58,0,0,1,.94,3.83v.76q0,4-1.94,5.81a7.38,7.38,0,0,1-5.26,1.82h-7.63a2.39,2.39,0,0,1-1.48-.43A1.25,1.25,0,0,1,169,110.35Zm4.64-14.65h4a2.72,2.72,0,0,0,2.14-.83,3.29,3.29,0,0,0,.74-2.27,3.07,3.07,0,0,0-.77-2.21,2.82,2.82,0,0,0-2.14-.81h-4Zm0,12h4.07q3.49,0,3.49-3.92v-.58a4.05,4.05,0,0,0-.88-2.92,3.5,3.5,0,0,0-2.61-.9h-4.07Z"/><path d="M189,103.76v-10q0-4.28,2.29-6.26a10.53,10.53,0,0,1,12.29,0q2.3,2,2.3,6.26v10q0,4.28-2.3,6.26a10.53,10.53,0,0,1-12.29,0Q189,108,189,103.76Zm4.68,0q0,4.14,3.74,4.14t3.78-4.14v-10q0-4.14-3.78-4.14t-3.74,4.14Z"/><path d="M209.86,110.31V86.95a1.23,1.23,0,0,1,.61-1.08,2.59,2.59,0,0,1,1.44-.4h12.82a1.22,1.22,0,0,1,1.1.61,2.62,2.62,0,0,1,.38,1.4,2.66,2.66,0,0,1-.4,1.48,1.23,1.23,0,0,1-1.08.61H214.54v7.2H220a1.26,1.26,0,0,1,1.08.56,2.22,2.22,0,0,1,.4,1.31,2.16,2.16,0,0,1-.38,1.24,1.24,1.24,0,0,1-1.1.56h-5.47v7.24h10.19a1.23,1.23,0,0,1,1.08.61,2.66,2.66,0,0,1,.4,1.48,2.61,2.61,0,0,1-.38,1.4,1.22,1.22,0,0,1-1.1.61H211.91a2.58,2.58,0,0,1-1.44-.4A1.22,1.22,0,0,1,209.86,110.31Z"/><path d="M228.94,110.31V86.91a1.16,1.16,0,0,1,.68-1.08,4,4,0,0,1,3.31,0,1.16,1.16,0,0,1,.68,1.08v20.77h8.79a1.16,1.16,0,0,1,1,.61,2.93,2.93,0,0,1,0,2.88,1.16,1.16,0,0,1-1,.61H231a2.58,2.58,0,0,1-1.44-.4A1.22,1.22,0,0,1,228.94,110.31Z"/><path d="M246.36,110.31V86.95a1.23,1.23,0,0,1,.61-1.08,2.59,2.59,0,0,1,1.44-.4h12.82a1.22,1.22,0,0,1,1.1.61,2.62,2.62,0,0,1,.38,1.4,2.66,2.66,0,0,1-.4,1.48,1.23,1.23,0,0,1-1.08.61H251v7.2h5.47a1.26,1.26,0,0,1,1.08.56,2.22,2.22,0,0,1,.4,1.31,2.16,2.16,0,0,1-.38,1.24,1.24,1.24,0,0,1-1.1.56H251v7.24h10.19a1.23,1.23,0,0,1,1.08.61,2.66,2.66,0,0,1,.4,1.48,2.61,2.61,0,0,1-.38,1.4,1.22,1.22,0,0,1-1.1.61H248.42a2.58,2.58,0,0,1-1.44-.4A1.22,1.22,0,0,1,246.36,110.31Z"/><path class="cls-1" d="M121.88,110.31V86.95a1.23,1.23,0,0,1,.61-1.08,2.59,2.59,0,0,1,1.44-.4h12.82a1.22,1.22,0,0,1,1.1.61,2.62,2.62,0,0,1,.38,1.4,2.66,2.66,0,0,1-.4,1.48,1.23,1.23,0,0,1-1.08.61H126.56v7.2H132a1.26,1.26,0,0,1,1.08.56,2.22,2.22,0,0,1,.4,1.31,2.16,2.16,0,0,1-.38,1.24,1.24,1.24,0,0,1-1.1.56h-5.47v7.24h10.19a1.23,1.23,0,0,1,1.08.61,2.66,2.66,0,0,1,.4,1.48,2.61,2.61,0,0,1-.38,1.4,1.21,1.21,0,0,1-1.1.61H123.93a2.59,2.59,0,0,1-1.44-.4A1.22,1.22,0,0,1,121.88,110.31Z"/><path class="cls-1" d="M141,110.35V86.91a1.25,1.25,0,0,1,.58-1,2.39,2.39,0,0,1,1.48-.43h6.37a9.13,9.13,0,0,1,6.16,2q2.3,2,2.3,6.26v9.83q0,4.28-2.3,6.26a9.12,9.12,0,0,1-6.16,2H143a2.39,2.39,0,0,1-1.48-.43A1.25,1.25,0,0,1,141,110.35Zm4.68-2.66h3.74q3.78,0,3.78-4.14V93.71q0-4.14-3.78-4.14h-3.74Z"/><path class="cls-1" d="M169,110.35V86.95a1.23,1.23,0,0,1,.61-1.08,2.59,2.59,0,0,1,1.44-.4H178q7.24,0,7.24,6.34,0,4.39-3.06,5.72a6,6,0,0,1,2.77,2,6.58,6.58,0,0,1,.94,3.83v.76q0,4-1.94,5.81a7.38,7.38,0,0,1-5.26,1.82h-7.63a2.39,2.39,0,0,1-1.48-.43A1.25,1.25,0,0,1,169,110.35Zm4.64-14.65h4a2.72,2.72,0,0,0,2.14-.83,3.29,3.29,0,0,0,.74-2.27,3.07,3.07,0,0,0-.77-2.21,2.82,2.82,0,0,0-2.14-.81h-4Zm0,12h4.07q3.49,0,3.49-3.92v-.58a4.05,4.05,0,0,0-.88-2.92,3.5,3.5,0,0,0-2.61-.9h-4.07Z"/><path class="cls-1" d="M189,103.76v-10q0-4.28,2.29-6.26a10.53,10.53,0,0,1,12.29,0q2.3,2,2.3,6.26v10q0,4.28-2.3,6.26a10.53,10.53,0,0,1-12.29,0Q189,108,189,103.76Zm4.68,0q0,4.14,3.74,4.14t3.78-4.14v-10q0-4.14-3.78-4.14t-3.74,4.14Z"/><path class="cls-1" d="M209.86,110.31V86.95a1.23,1.23,0,0,1,.61-1.08,2.59,2.59,0,0,1,1.44-.4h12.82a1.22,1.22,0,0,1,1.1.61,2.62,2.62,0,0,1,.38,1.4,2.66,2.66,0,0,1-.4,1.48,1.23,1.23,0,0,1-1.08.61H214.54v7.2H220a1.26,1.26,0,0,1,1.08.56,2.22,2.22,0,0,1,.4,1.31,2.16,2.16,0,0,1-.38,1.24,1.24,1.24,0,0,1-1.1.56h-5.47v7.24h10.19a1.23,1.23,0,0,1,1.08.61,2.66,2.66,0,0,1,.4,1.48,2.61,2.61,0,0,1-.38,1.4,1.22,1.22,0,0,1-1.1.61H211.91a2.58,2.58,0,0,1-1.44-.4A1.22,1.22,0,0,1,209.86,110.31Z"/><path class="cls-1" d="M228.94,110.31V86.91a1.16,1.16,0,0,1,.68-1.08,4,4,0,0,1,3.31,0,1.16,1.16,0,0,1,.68,1.08v20.77h8.79a1.16,1.16,0,0,1,1,.61,2.93,2.93,0,0,1,0,2.88,1.16,1.16,0,0,1-1,.61H231a2.58,2.58,0,0,1-1.44-.4A1.22,1.22,0,0,1,228.94,110.31Z"/><path class="cls-1" d="M246.36,110.31V86.95a1.23,1.23,0,0,1,.61-1.08,2.59,2.59,0,0,1,1.44-.4h12.82a1.22,1.22,0,0,1,1.1.61,2.62,2.62,0,0,1,.38,1.4,2.66,2.66,0,0,1-.4,1.48,1.23,1.23,0,0,1-1.08.61H251v7.2h5.47a1.26,1.26,0,0,1,1.08.56,2.22,2.22,0,0,1,.4,1.31,2.16,2.16,0,0,1-.38,1.24,1.24,1.24,0,0,1-1.1.56H251v7.24h10.19a1.23,1.23,0,0,1,1.08.61,2.66,2.66,0,0,1,.4,1.48,2.61,2.61,0,0,1-.38,1.4,1.22,1.22,0,0,1-1.1.61H248.42a2.58,2.58,0,0,1-1.44-.4A1.22,1.22,0,0,1,246.36,110.31Z"/><path class="cls-1" d="M19.13,36.88V12.36q0-.86,1.19-.86t1.19.86V25.1l10.4-13.25a.86.86,0,0,1,.76-.36,1.29,1.29,0,0,1,.86.4,1.13,1.13,0,0,1,.43.83.82.82,0,0,1-.18.54L26,22.87,34.9,36.19a1.13,1.13,0,0,1,.14.47,1.11,1.11,0,0,1-.43.85,1.39,1.39,0,0,1-.94.38,1.12,1.12,0,0,1-.9-.54L24.46,24.85l-3,3.74v8.28a.79.79,0,0,1-.36.68,1.41,1.41,0,0,1-.83.25,1.38,1.38,0,0,1-.85-.25A.8.8,0,0,1,19.13,36.88Z"/><path class="cls-1" d="M43.47,33.31a4,4,0,0,1,2.14-3.94,14,14,0,0,1,6.25-1.1h1.84v-.85a5.57,5.57,0,0,0-1-3.37,3.7,3.7,0,0,0-3.2-1.43,6.44,6.44,0,0,0-2.61.51,13,13,0,0,1-1.24.51.78.78,0,0,1-.68-.39,1.54,1.54,0,0,1-.25-.85q0-.68,1.55-1.26a9.42,9.42,0,0,1,3.31-.58q3.38,0,5,2a7.74,7.74,0,0,1,1.57,5v9.36a.83.83,0,0,1-.32.67,1.25,1.25,0,0,1-.83.27,1.13,1.13,0,0,1-.77-.27.85.85,0,0,1-.31-.67V35.29a7.1,7.1,0,0,1-5.44,2.77,5.13,5.13,0,0,1-3.53-1.21A4.47,4.47,0,0,1,43.47,33.31Zm2.34-.22a2.8,2.8,0,0,0,.86,2.25,3.37,3.37,0,0,0,2.27.74,5,5,0,0,0,3.22-1.26,3.43,3.43,0,0,0,1.53-2.52V30H52.18a23,23,0,0,0-2.43.11,11.18,11.18,0,0,0-2,.4,2.82,2.82,0,0,0-1.48.94A2.62,2.62,0,0,0,45.81,33.1Z"/><path class="cls-1" d="M66.44,33.31a4,4,0,0,1,2.14-3.94,14,14,0,0,1,6.25-1.1h1.84v-.85a5.57,5.57,0,0,0-1-3.37,3.7,3.7,0,0,0-3.2-1.43,6.44,6.44,0,0,0-2.61.51,13,13,0,0,1-1.24.51.78.78,0,0,1-.68-.39,1.54,1.54,0,0,1-.25-.85q0-.68,1.55-1.26a9.42,9.42,0,0,1,3.31-.58q3.38,0,5,2a7.74,7.74,0,0,1,1.57,5v9.36a.83.83,0,0,1-.32.67,1.25,1.25,0,0,1-.83.27,1.13,1.13,0,0,1-.77-.27.85.85,0,0,1-.31-.67V35.29a7.1,7.1,0,0,1-5.44,2.77,5.13,5.13,0,0,1-3.53-1.21A4.47,4.47,0,0,1,66.44,33.31Zm2.34-.22a2.8,2.8,0,0,0,.86,2.25,3.37,3.37,0,0,0,2.27.74,5,5,0,0,0,3.22-1.26,3.43,3.43,0,0,0,1.53-2.52V30H75.15a23,23,0,0,0-2.43.11,11.18,11.18,0,0,0-2,.4,2.82,2.82,0,0,0-1.48.94A2.62,2.62,0,0,0,68.78,33.1Z"/><path class="cls-1" d="M89.51,35.47a1.25,1.25,0,0,1,.25-.72.71.71,0,0,1,.58-.36,1.64,1.64,0,0,1,.79.41,7.38,7.38,0,0,0,1.55.85,6.1,6.1,0,0,0,2.41.43,4.47,4.47,0,0,0,2.81-.72,2.25,2.25,0,0,0,.9-1.84,2.57,2.57,0,0,0-.92-2.07,6.17,6.17,0,0,0-2.21-1.17l-2.61-.79a4.93,4.93,0,0,1-2.23-1.39,3.74,3.74,0,0,1-.92-2.65A4.76,4.76,0,0,1,91.33,22a5.71,5.71,0,0,1,4.27-1.46,9.55,9.55,0,0,1,3.29.56q1.53.56,1.53,1.21a1.46,1.46,0,0,1-.29.79.82.82,0,0,1-.68.43,10.78,10.78,0,0,1-1.33-.5,6.48,6.48,0,0,0-2.48-.5,3.81,3.81,0,0,0-2.7.85,2.56,2.56,0,0,0-.9,1.9A2,2,0,0,0,93,27a8,8,0,0,0,2.23,1l2.63.78a4.31,4.31,0,0,1,2.23,1.57,4.84,4.84,0,0,1,.9,3,4.14,4.14,0,0,1-1.53,3.4,6.59,6.59,0,0,1-4.27,1.24,8.66,8.66,0,0,1-4-.85Q89.51,36.37,89.51,35.47Z"/><path class="cls-1" d="M110.57,35.47a1.25,1.25,0,0,1,.25-.72.71.71,0,0,1,.58-.36,1.64,1.64,0,0,1,.79.41,7.38,7.38,0,0,0,1.55.85,6.1,6.1,0,0,0,2.41.43,4.47,4.47,0,0,0,2.81-.72,2.25,2.25,0,0,0,.9-1.84,2.57,2.57,0,0,0-.92-2.07,6.17,6.17,0,0,0-2.21-1.17l-2.61-.79a4.93,4.93,0,0,1-2.23-1.39,3.74,3.74,0,0,1-.92-2.65A4.76,4.76,0,0,1,112.39,22a5.71,5.71,0,0,1,4.27-1.46,9.55,9.55,0,0,1,3.29.56q1.53.56,1.53,1.21a1.46,1.46,0,0,1-.29.79.82.82,0,0,1-.68.43,10.78,10.78,0,0,1-1.33-.5,6.48,6.48,0,0,0-2.48-.5,3.81,3.81,0,0,0-2.7.85,2.56,2.56,0,0,0-.9,1.9A2,2,0,0,0,114,27a8,8,0,0,0,2.23,1l2.63.78a4.31,4.31,0,0,1,2.23,1.57,4.84,4.84,0,0,1,.9,3,4.14,4.14,0,0,1-1.53,3.4,6.59,6.59,0,0,1-4.27,1.24,8.66,8.66,0,0,1-4-.85Q110.57,36.37,110.57,35.47Z"/><path class="cls-1" d="M132.71,45.27V21.65A.75.75,0,0,1,133,21a1.31,1.31,0,0,1,.83-.25,1.24,1.24,0,0,1,.79.26.77.77,0,0,1,.32.62v1.68a5.5,5.5,0,0,1,1.91-2,5.31,5.31,0,0,1,2.92-.8,6.13,6.13,0,0,1,4.57,2,6.61,6.61,0,0,1,1.91,4.75v3.92A6.8,6.8,0,0,1,144.36,36a5.91,5.91,0,0,1-4.45,2.07,5.46,5.46,0,0,1-2.92-.82,5.18,5.18,0,0,1-1.94-2v10a.82.82,0,0,1-.34.61,1.27,1.27,0,0,1-.85.29,1.22,1.22,0,0,1-.81-.29A.81.81,0,0,1,132.71,45.27Zm2.34-12.94a3.49,3.49,0,0,0,1.35,2.26,4.33,4.33,0,0,0,3.08,1.29,4.16,4.16,0,0,0,3.11-1.43,4.58,4.58,0,0,0,1.35-3.22v-3.9a4.42,4.42,0,0,0-1.35-3.15,4.33,4.33,0,0,0-6.23-.14,4.34,4.34,0,0,0-1.31,3.29Z"/><path class="cls-1" d="M156.69,31.23v-4a6.28,6.28,0,0,1,2-4.66,7,7,0,0,1,9.59-.09,6.16,6.16,0,0,1,2,4.69,4.61,4.61,0,0,1-.23,1.62,1.51,1.51,0,0,1-.76.86,3.59,3.59,0,0,1-1,.32,7.65,7.65,0,0,1-1.19.07H159v1.33a4.21,4.21,0,0,0,1.53,3.4A5.94,5.94,0,0,0,164.5,36a5.85,5.85,0,0,0,2.14-.36,6.21,6.21,0,0,0,1.4-.72,1.48,1.48,0,0,1,.77-.36.89.89,0,0,1,.7.38,1.19,1.19,0,0,1,.31.74q0,.76-1.55,1.57a8.25,8.25,0,0,1-3.85.81,8.16,8.16,0,0,1-5.58-1.89A6.26,6.26,0,0,1,156.69,31.23Zm2.34-3h7.2a3,3,0,0,0,1.44-.23,1.1,1.1,0,0,0,.36-1,4.46,4.46,0,0,0-1.28-3.15,4.24,4.24,0,0,0-3.22-1.36,4.38,4.38,0,0,0-3.19,1.29A4.16,4.16,0,0,0,159,26.91Z"/><path class="cls-1" d="M180.41,31.23V27.37a6.91,6.91,0,0,1,1.76-4.91,6.75,6.75,0,0,1,5.18-1.89,7.66,7.66,0,0,1,3.62.77q1.46.77,1.46,1.57a1.19,1.19,0,0,1-.32.77.94.94,0,0,1-.72.38,1.41,1.41,0,0,1-.67-.31,6.54,6.54,0,0,0-1.28-.65,5.31,5.31,0,0,0-2-.33A4.73,4.73,0,0,0,184,24a4.62,4.62,0,0,0-1.21,3.4v3.83A4.67,4.67,0,0,0,184,34.65a4.78,4.78,0,0,0,3.55,1.22,5.67,5.67,0,0,0,2.07-.33,5.79,5.79,0,0,0,1.3-.67,1.37,1.37,0,0,1,.7-.33,1,1,0,0,1,.77.36,1.2,1.2,0,0,1,.31.79q0,.83-1.51,1.6a8.16,8.16,0,0,1-3.74.77,6.83,6.83,0,0,1-5.22-1.87A7,7,0,0,1,180.41,31.23Z"/><path class="cls-1" d="M203,15.29a1.42,1.42,0,0,1-.47-1.06,1.37,1.37,0,0,1,.47-1,1.63,1.63,0,0,1,1.15-.43,1.53,1.53,0,0,1,1.1.43,1.39,1.39,0,0,1,.45,1,1.45,1.45,0,0,1-.45,1.06,1.49,1.49,0,0,1-1.1.45A1.6,1.6,0,0,1,203,15.29Zm0,21.58V21.65a.75.75,0,0,1,.32-.61,1.31,1.31,0,0,1,.83-.25A1.39,1.39,0,0,1,205,21a.74.74,0,0,1,.34.61V36.88a.82.82,0,0,1-.36.65,1.29,1.29,0,0,1-.83.29,1.21,1.21,0,0,1-.81-.29A.84.84,0,0,1,203,36.88Z"/><path class="cls-1" d="M215.91,33.31a4,4,0,0,1,2.14-3.94,14,14,0,0,1,6.25-1.1h1.84v-.85a5.57,5.57,0,0,0-1-3.37,3.7,3.7,0,0,0-3.2-1.43,6.45,6.45,0,0,0-2.61.51,13,13,0,0,1-1.24.51.78.78,0,0,1-.68-.39,1.54,1.54,0,0,1-.25-.85q0-.68,1.55-1.26a9.43,9.43,0,0,1,3.31-.58q3.38,0,5,2a7.74,7.74,0,0,1,1.57,5v9.36a.83.83,0,0,1-.32.67,1.25,1.25,0,0,1-.83.27,1.12,1.12,0,0,1-.77-.27.85.85,0,0,1-.31-.67V35.29a7.1,7.1,0,0,1-5.44,2.77,5.13,5.13,0,0,1-3.53-1.21A4.47,4.47,0,0,1,215.91,33.31Zm2.34-.22a2.8,2.8,0,0,0,.86,2.25,3.37,3.37,0,0,0,2.27.74,5,5,0,0,0,3.22-1.26,3.43,3.43,0,0,0,1.53-2.52V30h-1.51a23,23,0,0,0-2.43.11,11.19,11.19,0,0,0-2,.4,2.82,2.82,0,0,0-1.48.94A2.61,2.61,0,0,0,218.25,33.1Z"/><path class="cls-1" d="M238.88,33.31A4,4,0,0,1,241,29.38a14,14,0,0,1,6.25-1.1h1.84v-.85a5.57,5.57,0,0,0-1-3.37,3.7,3.7,0,0,0-3.2-1.43,6.45,6.45,0,0,0-2.61.51,13,13,0,0,1-1.24.51.78.78,0,0,1-.68-.39,1.54,1.54,0,0,1-.25-.85q0-.68,1.55-1.26a9.43,9.43,0,0,1,3.31-.58q3.38,0,5,2a7.74,7.74,0,0,1,1.57,5v9.36a.83.83,0,0,1-.32.67,1.25,1.25,0,0,1-.83.27,1.12,1.12,0,0,1-.77-.27.85.85,0,0,1-.31-.67V35.29a7.1,7.1,0,0,1-5.44,2.77,5.13,5.13,0,0,1-3.53-1.21A4.47,4.47,0,0,1,238.88,33.31Zm2.34-.22a2.8,2.8,0,0,0,.86,2.25,3.37,3.37,0,0,0,2.27.74,5,5,0,0,0,3.22-1.26,3.43,3.43,0,0,0,1.53-2.52V30h-1.51a23,23,0,0,0-2.43.11,11.19,11.19,0,0,0-2,.4,2.82,2.82,0,0,0-1.48.94A2.61,2.61,0,0,0,241.22,33.1Z"/><path class="cls-1" d="M263.32,36.88V11.21a.75.75,0,0,1,.32-.61,1.31,1.31,0,0,1,.83-.25,1.39,1.39,0,0,1,.85.25.74.74,0,0,1,.34.61V36.88a.84.84,0,0,1-.34.65,1.27,1.27,0,0,1-.85.29,1.22,1.22,0,0,1-.81-.29A.84.84,0,0,1,263.32,36.88Z"/><path class="cls-1" d="M276.28,36.89a1.61,1.61,0,0,1,.36-.9l8.82-13.16h-8a.77.77,0,0,1-.61-.31,1.07,1.07,0,0,1-.25-.7,1.13,1.13,0,0,1,.25-.74.77.77,0,0,1,.61-.31h10.19a.89.89,0,0,1,.9.94,1.45,1.45,0,0,1-.29.87l-8.86,13.17h8.71a.77.77,0,0,1,.61.3,1.14,1.14,0,0,1,.25.76,1,1,0,0,1-.25.69.77.77,0,0,1-.61.3H277.25a.92.92,0,0,1-.7-.28A.9.9,0,0,1,276.28,36.89Z"/><path class="cls-1" d="M298.13,33.31a4,4,0,0,1,2.14-3.94,14,14,0,0,1,6.25-1.1h1.84v-.85a5.57,5.57,0,0,0-1-3.37,3.7,3.7,0,0,0-3.2-1.43,6.44,6.44,0,0,0-2.61.51,13,13,0,0,1-1.24.51.78.78,0,0,1-.68-.39,1.54,1.54,0,0,1-.25-.85q0-.68,1.55-1.26a9.42,9.42,0,0,1,3.31-.58q3.38,0,5,2a7.74,7.74,0,0,1,1.57,5v9.36a.83.83,0,0,1-.32.67,1.25,1.25,0,0,1-.83.27,1.13,1.13,0,0,1-.77-.27.85.85,0,0,1-.31-.67V35.29A7.1,7.1,0,0,1,303,38.06a5.13,5.13,0,0,1-3.53-1.21A4.47,4.47,0,0,1,298.13,33.31Zm2.34-.22a2.8,2.8,0,0,0,.86,2.25,3.37,3.37,0,0,0,2.27.74,5,5,0,0,0,3.22-1.26,3.43,3.43,0,0,0,1.53-2.52V30h-1.51a23,23,0,0,0-2.43.11,11.15,11.15,0,0,0-2,.4,2.82,2.82,0,0,0-1.48.94A2.62,2.62,0,0,0,300.47,33.1Z"/><path class="cls-1" d="M321.1,33.31a4,4,0,0,1,2.14-3.94,14,14,0,0,1,6.25-1.1h1.84v-.85a5.57,5.57,0,0,0-1-3.37,3.7,3.7,0,0,0-3.2-1.43,6.44,6.44,0,0,0-2.61.51,13,13,0,0,1-1.24.51.78.78,0,0,1-.68-.39,1.54,1.54,0,0,1-.25-.85q0-.68,1.55-1.26a9.42,9.42,0,0,1,3.31-.58q3.38,0,5,2a7.74,7.74,0,0,1,1.57,5v9.36a.83.83,0,0,1-.32.67,1.25,1.25,0,0,1-.83.27,1.13,1.13,0,0,1-.77-.27.85.85,0,0,1-.31-.67V35.29A7.1,7.1,0,0,1,326,38.06a5.13,5.13,0,0,1-3.53-1.21A4.47,4.47,0,0,1,321.1,33.31Zm2.34-.22a2.8,2.8,0,0,0,.86,2.25,3.37,3.37,0,0,0,2.27.74,5,5,0,0,0,3.22-1.26,3.43,3.43,0,0,0,1.53-2.52V30h-1.51a23,23,0,0,0-2.43.11,11.15,11.15,0,0,0-2,.4,2.82,2.82,0,0,0-1.48.94A2.62,2.62,0,0,0,323.44,33.1Z"/><path class="cls-1" d="M345.25,36.88V11.21a.75.75,0,0,1,.32-.61,1.31,1.31,0,0,1,.83-.25,1.39,1.39,0,0,1,.85.25.74.74,0,0,1,.34.61V28.74l8.78-7.81a1.23,1.23,0,0,1,.54-.22,1.19,1.19,0,0,1,.81.34,1,1,0,0,1,.38.77.81.81,0,0,1-.25.65l-5.29,4.64,6.23,9.11a1.17,1.17,0,0,1,.14.5,1.14,1.14,0,0,1-.4.79,1.2,1.2,0,0,1-.86.4.85.85,0,0,1-.72-.43l-6-8.89-3.31,2.92v5.36a.84.84,0,0,1-.34.65,1.27,1.27,0,0,1-.85.29,1.21,1.21,0,0,1-.81-.29A.84.84,0,0,1,345.25,36.88Z"/></g></g></svg>