<svg xmlns="http://www.w3.org/2000/svg" viewBox="0 0 383 132.17"><defs><style>.cls-1{fill:#eace57;}.cls-2{font-size:36px;font-family:Dosis-SemiBold, Dosis;font-weight:700;}</style></defs><title>Asset 9</title><g id="Layer_2" data-name="Layer 2"><g id="Layer_2_copy" data-name="Layer 2 copy"><rect class="cls-1" width="383" height="53"/><path d="M16.31,109.42V12.54a.85.85,0,0,1,.45-.77,2.22,2.22,0,0,1,2.12,0,.85.85,0,0,1,.45.77V24.46L29,11.93a1.06,1.06,0,0,1,.9-.43A1.76,1.76,0,0,1,31,12a1.42,1.42,0,0,1,.58,1,1,1,0,0,1-.25.65L24,22.87l8.57,13a1,1,0,0,1,.18.54,1.35,1.35,0,0,1-.56,1,1.84,1.84,0,0,1-1.21.47,1.26,1.26,0,0,1-1.12-.61L22,25.43l-2.66,3.35v80.64"/><path d="M41,33.35a4,4,0,0,1,2.16-3.94,14.1,14.1,0,0,1,6.26-1.11h1.73v-.76a5.16,5.16,0,0,0-1-3.15,3.45,3.45,0,0,0-3-1.34,6.21,6.21,0,0,0-2.66.54,9.13,9.13,0,0,1-1.26.54.92.92,0,0,1-.81-.49,1.89,1.89,0,0,1-.31-1q0-.83,1.64-1.46a9.59,9.59,0,0,1,3.47-.63q3.53,0,5.2,2a7.5,7.5,0,0,1,1.67,5v9.22a.93.93,0,0,1-.41.77,1.74,1.74,0,0,1-1.06.31,1.57,1.57,0,0,1-1-.3.91.91,0,0,1-.4-.75v-1.4a7.2,7.2,0,0,1-5.44,2.74,5,5,0,0,1-3.51-1.21A4.5,4.5,0,0,1,41,33.35ZM44,33a2.63,2.63,0,0,0,.76,2,2.86,2.86,0,0,0,2,.69,4.47,4.47,0,0,0,2.93-1.22A3.39,3.39,0,0,0,51.16,32v-1.9H49.9q-1,0-1.8.05a12.35,12.35,0,0,0-1.57.22,4.29,4.29,0,0,0-1.33.47A2.35,2.35,0,0,0,44,33Z"/><path d="M64.33,33.35a4,4,0,0,1,2.16-3.94,14.1,14.1,0,0,1,6.26-1.11h1.73v-.76a5.16,5.16,0,0,0-1-3.15,3.45,3.45,0,0,0-3-1.34,6.21,6.21,0,0,0-2.66.54,9.13,9.13,0,0,1-1.26.54.92.92,0,0,1-.81-.49,1.89,1.89,0,0,1-.31-1q0-.83,1.64-1.46a9.59,9.59,0,0,1,3.47-.63q3.53,0,5.2,2a7.5,7.5,0,0,1,1.67,5v9.22a.93.93,0,0,1-.41.77,1.74,1.74,0,0,1-1.06.31,1.57,1.57,0,0,1-1-.3.91.91,0,0,1-.4-.75v-1.4a7.2,7.2,0,0,1-5.44,2.74,5,5,0,0,1-3.51-1.21A4.5,4.5,0,0,1,64.33,33.35Zm3-.33a2.63,2.63,0,0,0,.76,2,2.86,2.86,0,0,0,2,.69,4.47,4.47,0,0,0,2.93-1.22A3.39,3.39,0,0,0,74.48,32v-1.9H73.22q-1,0-1.8.05a12.35,12.35,0,0,0-1.57.22,4.29,4.29,0,0,0-1.33.47A2.35,2.35,0,0,0,67.36,33Z"/><path d="M87.73,35.36a1.62,1.62,0,0,1,.31-.92.88.88,0,0,1,.74-.45,1.57,1.57,0,0,1,.83.45,6.35,6.35,0,0,0,1.55.88,6,6,0,0,0,2.38.43,4.15,4.15,0,0,0,2.61-.66,2,2,0,0,0,.81-1.64,2.31,2.31,0,0,0-.9-1.91,6.22,6.22,0,0,0-2.2-1.07q-1.3-.36-2.59-.8a5,5,0,0,1-2.2-1.46,3.92,3.92,0,0,1-.9-2.69A4.84,4.84,0,0,1,89.62,22a6,6,0,0,1,4.45-1.48,10.16,10.16,0,0,1,3.49.58q1.58.58,1.58,1.31a1.86,1.86,0,0,1-.34,1,1,1,0,0,1-.85.54,9,9,0,0,1-1.39-.53,6.26,6.26,0,0,0-2.47-.53,3.43,3.43,0,0,0-2.47.78,2.4,2.4,0,0,0-.81,1.77,1.82,1.82,0,0,0,.9,1.6,7.32,7.32,0,0,0,2.21.91,25.6,25.6,0,0,1,2.61.8,4.89,4.89,0,0,1,2.2,1.62,4.67,4.67,0,0,1,.9,3,4.26,4.26,0,0,1-1.58,3.5,6.85,6.85,0,0,1-4.43,1.28,9.1,9.1,0,0,1-4.18-.88Q87.73,36.34,87.73,35.36Z"/><path d="M109,35.36a1.61,1.61,0,0,1,.31-.92.88.88,0,0,1,.74-.45,1.56,1.56,0,0,1,.83.45,6.39,6.39,0,0,0,1.55.88,6,6,0,0,0,2.38.43,4.16,4.16,0,0,0,2.61-.66,2,2,0,0,0,.81-1.64,2.31,2.31,0,0,0-.9-1.91,6.22,6.22,0,0,0-2.2-1.07q-1.3-.36-2.59-.8a5,5,0,0,1-2.2-1.46,3.92,3.92,0,0,1-.9-2.69A4.84,4.84,0,0,1,110.93,22a6,6,0,0,1,4.45-1.48,10.16,10.16,0,0,1,3.49.58q1.58.58,1.58,1.31a1.87,1.87,0,0,1-.34,1,1,1,0,0,1-.85.54,8.9,8.9,0,0,1-1.39-.53,6.26,6.26,0,0,0-2.47-.53,3.43,3.43,0,0,0-2.47.78,2.4,2.4,0,0,0-.81,1.77A1.82,1.82,0,0,0,113,27a7.33,7.33,0,0,0,2.21.91,25.69,25.69,0,0,1,2.61.8,4.89,4.89,0,0,1,2.2,1.62,4.67,4.67,0,0,1,.9,3,4.26,4.26,0,0,1-1.58,3.5,6.85,6.85,0,0,1-4.43,1.28,9.09,9.09,0,0,1-4.18-.88Q109,36.34,109,35.36Z"/><path d="M131.44,132.17V21.79a.88.88,0,0,1,.41-.76,1.75,1.75,0,0,1,1-.29,1.65,1.65,0,0,1,1,.29.91.91,0,0,1,.4.77v1.5a5.5,5.5,0,0,1,1.91-2,5.31,5.31,0,0,1,2.92-.8,6,6,0,0,1,4.59,2,6.92,6.92,0,0,1,1.89,4.88v3.67A7.06,7.06,0,0,1,143.67,36a5.8,5.8,0,0,1-4.43,2.12,5.36,5.36,0,0,1-2.9-.82,5.13,5.13,0,0,1-1.93-2v96.91m0-100.09a3.26,3.26,0,0,0,1.24,2.09,4,4,0,0,0,2.83,1.2,3.85,3.85,0,0,0,2.86-1.31,4.18,4.18,0,0,0,1.24-3V27.46a4.08,4.08,0,0,0-1.24-2.9,3.94,3.94,0,0,0-2.93-1.29,3.9,3.9,0,0,0-2.79,1.16,4,4,0,0,0-1.21,3Z"/><path d="M155.73,31.12V27.34a6.41,6.41,0,0,1,2.11-4.79,7.05,7.05,0,0,1,5.06-2,7,7,0,0,1,4.86,1.88,6.12,6.12,0,0,1,2.05,4.71,4.7,4.7,0,0,1-.25,1.69,1.67,1.67,0,0,1-.77.91,3.26,3.26,0,0,1-1,.35,8,8,0,0,1-1.21.07h-7.88v1.08a3.92,3.92,0,0,0,1.42,3.17,5.56,5.56,0,0,0,3.69,1.19,5.45,5.45,0,0,0,2.07-.36,9.17,9.17,0,0,0,1.42-.7,1.79,1.79,0,0,1,.86-.34,1.08,1.08,0,0,1,.86.45,1.46,1.46,0,0,1,.36.92q0,.83-1.64,1.69a8.6,8.6,0,0,1-4,.86A8.5,8.5,0,0,1,158,36.18,6.36,6.36,0,0,1,155.73,31.12Zm3-3h6.66a2.33,2.33,0,0,0,1.26-.23,1.07,1.07,0,0,0,.32-.92,4,4,0,0,0-1.19-2.84,3.91,3.91,0,0,0-2.92-1.22A4.14,4.14,0,0,0,159.95,24a3.65,3.65,0,0,0-1.22,2.79Z"/><path d="M179.71,31.12v-3.6a7.08,7.08,0,0,1,1.82-5,7,7,0,0,1,5.35-1.94,8.12,8.12,0,0,1,3.76.79q1.53.79,1.53,1.69a1.6,1.6,0,0,1-.38,1,1.1,1.1,0,0,1-.88.49,6.29,6.29,0,0,1-1.24-.61,5.2,5.2,0,0,0-2.57-.61,4.46,4.46,0,0,0-3.28,1.11,4.25,4.25,0,0,0-1.12,3.15v3.58q0,4.26,4.43,4.26a5.26,5.26,0,0,0,2.63-.63,5.59,5.59,0,0,1,1.3-.63,1.18,1.18,0,0,1,1,.47,1.53,1.53,0,0,1,.38,1q0,.9-1.58,1.73a8.32,8.32,0,0,1-3.89.83,7.05,7.05,0,0,1-5.38-1.93A7.07,7.07,0,0,1,179.71,31.12Z"/><path d="M202.7,15.55a1.61,1.61,0,0,1-.56-1.21,1.57,1.57,0,0,1,.54-1.19,1.88,1.88,0,0,1,1.33-.5,1.84,1.84,0,0,1,1.3.5,1.58,1.58,0,0,1,.54,1.19,1.63,1.63,0,0,1-.54,1.21,1.8,1.8,0,0,1-1.3.52A1.86,1.86,0,0,1,202.7,15.55Zm-.16,21.19V21.79A.87.87,0,0,1,203,21a1.84,1.84,0,0,1,1-.29,1.91,1.91,0,0,1,1.08.29.88.88,0,0,1,.43.76V36.73a1,1,0,0,1-.45.74,1.83,1.83,0,0,1-2.11,0A.93.93,0,0,1,202.53,36.73Z"/><path d="M215.85,33.35A4,4,0,0,1,218,29.42a14.1,14.1,0,0,1,6.26-1.11H226v-.76a5.16,5.16,0,0,0-1-3.15,3.45,3.45,0,0,0-3-1.34,6.21,6.21,0,0,0-2.66.54,9.13,9.13,0,0,1-1.26.54.92.92,0,0,1-.81-.49,1.89,1.89,0,0,1-.31-1q0-.83,1.64-1.46a9.59,9.59,0,0,1,3.47-.63q3.53,0,5.2,2a7.5,7.5,0,0,1,1.67,5v9.22a.93.93,0,0,1-.41.77,1.74,1.74,0,0,1-1.06.31,1.57,1.57,0,0,1-1-.3.91.91,0,0,1-.4-.75v-1.4a7.2,7.2,0,0,1-5.44,2.74,5,5,0,0,1-3.51-1.21A4.5,4.5,0,0,1,215.85,33.35Zm3-.33a2.63,2.63,0,0,0,.76,2,2.86,2.86,0,0,0,2,.69,4.47,4.47,0,0,0,2.93-1.22A3.39,3.39,0,0,0,226,32v-1.9h-1.26q-1,0-1.8.05a12.35,12.35,0,0,0-1.57.22,4.29,4.29,0,0,0-1.33.47A2.35,2.35,0,0,0,218.88,33Z"/><path d="M239.18,33.35a4,4,0,0,1,2.16-3.94,14.1,14.1,0,0,1,6.26-1.11h1.73v-.76a5.17,5.17,0,0,0-1-3.15,3.45,3.45,0,0,0-3-1.34,6.21,6.21,0,0,0-2.66.54,9.11,9.11,0,0,1-1.26.54.92.92,0,0,1-.81-.49,1.89,1.89,0,0,1-.31-1q0-.83,1.64-1.46a9.59,9.59,0,0,1,3.47-.63q3.53,0,5.2,2a7.5,7.5,0,0,1,1.67,5v9.22a.93.93,0,0,1-.41.77,1.74,1.74,0,0,1-1.06.31,1.56,1.56,0,0,1-1-.3.91.91,0,0,1-.4-.75v-1.4A7.2,7.2,0,0,1,244,38.1a5.05,5.05,0,0,1-3.51-1.21A4.51,4.51,0,0,1,239.18,33.35Zm3-.33a2.63,2.63,0,0,0,.76,2,2.86,2.86,0,0,0,2,.69,4.47,4.47,0,0,0,2.93-1.22,3.39,3.39,0,0,0,1.42-2.5v-1.9h-1.26q-1,0-1.8.05a12.34,12.34,0,0,0-1.57.22,4.29,4.29,0,0,0-1.33.47A2.35,2.35,0,0,0,242.21,33Z"/><path d="M264,36.73V11.5a.88.88,0,0,1,.41-.76,1.82,1.82,0,0,1,1.06-.29,1.91,1.91,0,0,1,1.08.29.87.87,0,0,1,.43.76V36.73a1,1,0,0,1-.45.74,1.83,1.83,0,0,1-2.11,0A.93.93,0,0,1,264,36.73Z"/><path d="M277.41,36.71a2,2,0,0,1,.47-1.19l8.32-12.25h-7.45a.89.89,0,0,1-.7-.37,1.33,1.33,0,0,1-.31-.87,1.43,1.43,0,0,1,.29-.9.88.88,0,0,1,.72-.37H289a1,1,0,0,1,.76.32,1.1,1.1,0,0,1,.32.82,1.82,1.82,0,0,1-.43,1.16l-8.35,12.25h8.24a.9.9,0,0,1,.7.37,1.39,1.39,0,0,1,.31.91,1.37,1.37,0,0,1-.29.89.89.89,0,0,1-.72.35H278.53a1,1,0,0,1-.83-.34A1.14,1.14,0,0,1,277.41,36.71Z"/><path d="M299.59,33.35a4,4,0,0,1,2.16-3.94A14.1,14.1,0,0,1,308,28.31h1.73v-.76a5.16,5.16,0,0,0-1-3.15,3.45,3.45,0,0,0-3-1.34,6.21,6.21,0,0,0-2.66.54,9.07,9.07,0,0,1-1.26.54.92.92,0,0,1-.81-.49,1.89,1.89,0,0,1-.31-1q0-.83,1.64-1.46a9.59,9.59,0,0,1,3.47-.63q3.53,0,5.2,2a7.49,7.49,0,0,1,1.68,5v9.22a.93.93,0,0,1-.41.77,1.74,1.74,0,0,1-1.06.31,1.57,1.57,0,0,1-1-.3.91.91,0,0,1-.4-.75v-1.4a7.2,7.2,0,0,1-5.44,2.74,5,5,0,0,1-3.51-1.21A4.5,4.5,0,0,1,299.59,33.35Zm3-.33a2.63,2.63,0,0,0,.76,2,2.86,2.86,0,0,0,2,.69,4.48,4.48,0,0,0,2.94-1.22,3.39,3.39,0,0,0,1.42-2.5v-1.9h-1.26q-1,0-1.8.05a12.38,12.38,0,0,0-1.57.22,4.3,4.3,0,0,0-1.33.47,2.46,2.46,0,0,0-.85.84A2.43,2.43,0,0,0,302.61,33Z"/><path d="M322.92,33.35a4,4,0,0,1,2.16-3.94,14.1,14.1,0,0,1,6.26-1.11h1.73v-.76a5.16,5.16,0,0,0-1-3.15,3.45,3.45,0,0,0-3-1.34,6.21,6.21,0,0,0-2.66.54,9.19,9.19,0,0,1-1.26.54.92.92,0,0,1-.81-.49,1.89,1.89,0,0,1-.31-1q0-.83,1.64-1.46a9.59,9.59,0,0,1,3.47-.63q3.53,0,5.2,2a7.5,7.5,0,0,1,1.67,5v9.22a.93.93,0,0,1-.41.77,1.74,1.74,0,0,1-1.06.31,1.57,1.57,0,0,1-1-.3.91.91,0,0,1-.4-.75v-1.4a7.2,7.2,0,0,1-5.44,2.74,5,5,0,0,1-3.51-1.21A4.5,4.5,0,0,1,322.92,33.35Zm3-.33a2.63,2.63,0,0,0,.76,2,2.86,2.86,0,0,0,2,.69,4.48,4.48,0,0,0,2.93-1.22,3.39,3.39,0,0,0,1.42-2.5v-1.9h-1.26q-1,0-1.8.05a12.34,12.34,0,0,0-1.57.22,4.29,4.29,0,0,0-1.33.47A2.35,2.35,0,0,0,325.94,33Z"/><path d="M347.4,84.21V11.5a.88.88,0,0,1,.41-.76,1.82,1.82,0,0,1,1.06-.29,1.91,1.91,0,0,1,1.08.29.87.87,0,0,1,.43.76V28.35l8.21-7.42a1.05,1.05,0,0,1,.65-.25,1.53,1.53,0,0,1,1,.43,1.28,1.28,0,0,1,.49,1,.92.92,0,0,1-.32.72l-5,4.43,6,8.68a1,1,0,0,1,.18.54,1.39,1.39,0,0,1-.54,1,1.66,1.66,0,0,1-1.12.49,1,1,0,0,1-.83-.47l-5.72-8.39-3,2.66V84.21"/><rect class="cls-1" x="86" y="71.5" width="211" height="53"/><text class="cls-2" transform="translate(120.62 111.93)">ED BOELE</text><text class="cls-2" transform="translate(120.62 111.93)">ED BOELE</text></g></g></svg>